<svg width="37" height="37" viewBox="0 0 37 37" fill="none" xmlns="http://www.w3.org/2000/svg">
<circle cx="18.5" cy="18.5" r="18.5" fill="#383B58"/>
<path d="M14.982 17.24C15.6887 17.52 16.262 17.9467 16.702 18.52C17.1554 19.0933 17.382 19.8333 17.382 20.74C17.382 22.3267 16.9287 23.4333 16.022 24.06C15.1154 24.6867 14.0354 25 12.782 25H7.80203C7.45536 25 7.16203 24.8867 6.92203 24.66C6.69536 24.42 6.58203 24.1267 6.58203 23.78V12.22C6.58203 11.8733 6.69536 11.5867 6.92203 11.36C7.16203 11.12 7.45536 11 7.80203 11H12.842C15.3754 11 16.642 12.1867 16.642 14.56C16.642 15.16 16.4954 15.6933 16.202 16.16C15.922 16.6133 15.5154 16.9733 14.982 17.24ZM14.042 15C14.042 14.4533 13.902 14.0467 13.622 13.78C13.3554 13.5 12.9754 13.36 12.482 13.36H9.18203V16.48H12.542C12.942 16.48 13.2887 16.3467 13.582 16.08C13.8887 15.8133 14.042 15.4533 14.042 15ZM12.782 22.7C13.4087 22.7 13.8954 22.5333 14.242 22.2C14.602 21.8667 14.782 21.38 14.782 20.74C14.782 19.9533 14.5754 19.44 14.162 19.2C13.7487 18.96 13.242 18.84 12.642 18.84H9.18203V22.7H12.782ZM30.6675 23.04C30.8408 23.1467 30.9742 23.2867 31.0675 23.46C31.1742 23.6333 31.2275 23.8133 31.2275 24C31.2275 24.24 31.1475 24.46 30.9875 24.66C30.7875 24.9 30.4808 25.02 30.0675 25.02C29.7475 25.02 29.4542 24.9467 29.1875 24.8C28.2275 24.2533 27.7475 23.14 27.7475 21.46C27.7475 20.98 27.5875 20.6 27.2675 20.32C26.9608 20.04 26.5142 19.9 25.9275 19.9H22.1875V23.78C22.1875 24.14 22.0875 24.4333 21.8875 24.66C21.7008 24.8867 21.4475 25 21.1275 25C20.7408 25 20.4008 24.8867 20.1075 24.66C19.8275 24.42 19.6875 24.1267 19.6875 23.78V12.22C19.6875 11.8733 19.8008 11.5867 20.0275 11.36C20.2675 11.12 20.5608 11 20.9075 11H26.6675C27.3608 11 28.0142 11.1867 28.6275 11.56C29.2408 11.9333 29.7275 12.4467 30.0875 13.1C30.4608 13.7533 30.6475 14.4867 30.6475 15.3C30.6475 15.9667 30.4675 16.62 30.1075 17.26C29.7475 17.8867 29.2808 18.3867 28.7075 18.76C29.5475 19.3467 30.0075 20.1333 30.0875 21.12C30.1275 21.3333 30.1475 21.54 30.1475 21.74C30.2008 22.1533 30.2542 22.4533 30.3075 22.64C30.3608 22.8133 30.4808 22.9467 30.6675 23.04ZM26.5675 17.84C26.8075 17.84 27.0408 17.7267 27.2675 17.5C27.4942 17.2733 27.6808 16.9733 27.8275 16.6C27.9742 16.2133 28.0475 15.8 28.0475 15.36C28.0475 14.9867 27.9742 14.6467 27.8275 14.34C27.6808 14.02 27.4942 13.7667 27.2675 13.58C27.0408 13.3933 26.8075 13.3 26.5675 13.3H22.1875V17.84H26.5675Z" fill="white"/>
</svg>
